:version 1.10
:name ASF
:units
  mass 1
  length 1
  angle deg
:documentation
  ASF file generated by Kaydara
:root
  axis xyz
  order  tx ty tz rx ry rz
  position 0 0 0
  orientation 0 0 0
:bonedata
  begin
    id 1
    name RightUpLegDummy
    direction -0.718183 -0.695806 0.00816078
    length 4.904
    axis 0 0 0 xyz
  end
  begin
    id 2
    name RightUpLeg
    direction 3.53373e-006 -0.995788 0.0916898
    length 17.4976
    axis -3.49089 -0.000906625 0.000286804 xyz
    dof rx ry rz
  end
  begin
    id 3
    name RightLeg
    direction 0.00371092 -0.995096 -0.0988419
    length 16.5821
    axis 3.68512 0.0193738 -0.131023 xyz
    dof rx ry rz
  end
  begin
    id 4
    name RightFoot
    direction 0.00079151 -0.46099 0.887405
    length 3.77069
    axis 4.81691e-005 -0.120479 -0.188788 xyz
    dof rx ry rz
  end
  begin
    id 5
    name RightToes
    direction 0 0 0
    length 0
    axis 0 0 0 xyz
    dof rx ry rz
  end
  begin
    id 6
    name SpineDummy
    direction 8.3039e-015 1 4.57515e-016
    length 4.6813
    axis 0 0 0 xyz
  end
  begin
    id 7
    name Spine
    direction -3.15643e-008 0.999988 0.00495137
    length 10.1015
    axis -0.001389 0.000121418 2.40972e-006 xyz
    dof rx ry rz
  end
  begin
    id 8
    name Spine1
    direction 0 0 0
    length 0
    axis -0.001389 0.000121451 1.30017e-006 xyz
    dof rx ry rz
  end
  begin
    id 9
    name HEadDummy
    direction -1.99912e-008 0.999999 0.00127422
    length 3.43865
    axis -0.001389 0.000121451 1.30017e-006 xyz
  end
  begin
    id 10
    name HEad
    direction 0 0 0
    length 0
    axis 0 0 0 xyz
    dof rx ry rz
  end
  begin
    id 11
    name LeftShoulder1Dummy
    direction 0.998891 -0.0402509 -0.0244456
    length 3.5433
    axis -0.001389 0.000121451 1.30017e-006 xyz
  end
  begin
    id 12
    name LeftShoulder1
    direction 0.99951 -0.000327763 0.0313091
    length 4.05031
    axis -0.001389 0.000121451 1.30017e-006 xyz
    dof rx ry rz
  end
  begin
    id 13
    name LeftArm
    direction 0.998561 -0.00100056 -0.0536182
    length 10.3537
    axis -23.1894 0.134784 0.967509 xyz
    dof rx ry rz
  end
  begin
    id 14
    name LeftForeArm
    direction 0.998903 0.00866432 0.046012
    length 8.70632
    axis -9.91835 -0.06569 -0.177794 xyz
    dof rx ry rz
  end
  begin
    id 15
    name LeftHand
    direction 0 0 0
    length 0
    axis 0 0 0 xyz
    dof rx ry rz
  end
  begin
    id 16
    name RightShoulderDummy
    direction -0.998891 -0.0402509 -0.0244414
    length 3.5433
    axis -0.001389 0.000121451 1.30017e-006 xyz
  end
  begin
    id 17
    name RightShoulder
    direction -0.99951 -0.000327807 0.0313133
    length 4.05031
    axis 0.215806 0.000203643 -0.0068026 xyz
    dof rx ry rz
  end
  begin
    id 18
    name RightArm
    direction -0.998573 -0.000999564 -0.053403
    length 10.3947
    axis -23.2009 -0.134239 -0.964101 xyz
    dof rx ry rz
  end
  begin
    id 19
    name RightForeArm
    direction -0.998898 0.00868028 0.0461306
    length 8.68355
    axis -9.92322 0.0658061 0.178868 xyz
    dof rx ry rz
  end
  begin
    id 20
    name RightHand
    direction 0 0 0
    length 0
    axis 0 0 0 xyz
    dof rx ry rz
  end
  begin
    id 21
    name LeftUpLegDummy
    direction 0.718183 -0.695806 0.00816078
    length 4.904
    axis 0 0 0 xyz
  end
  begin
    id 22
    name LeftUpLeg
    direction -6.81752e-006 -0.995793 0.0916337
    length 17.4976
    axis -3.48766 0.00143442 -0.000524262 xyz
    dof rx ry rz
  end
  begin
    id 23
    name LeftLeg
    direction -0.00601358 -0.995091 -0.0987824
    length 16.5821
    axis 3.68178 -0.00654042 -0.000285133 xyz
    dof rx ry rz
  end
  begin
    id 24
    name LeftFoot
    direction -0.00417578 -0.460984 0.887399
    length 3.77069
    axis 1.87233e-006 4.66016e-005 -8.6538e-006 xyz
    dof rx ry rz
  end
  begin
    id 25
    name LeftToes
    direction 0 0 0
    length 0
    axis 0 0 0 xyz
    dof rx ry rz
  end
:hierarchy
  begin
    root RightUpLegDummy SpineDummy LeftUpLegDummy
    RightUpLegDummy RightUpLeg
    RightUpLeg RightLeg
    RightLeg RightFoot
    RightFoot RightToes
    SpineDummy Spine
    Spine Spine1
    Spine1 HEadDummy LeftShoulder1Dummy RightShoulderDummy
    HEadDummy HEad
    LeftShoulder1Dummy LeftShoulder1
    LeftShoulder1 LeftArm
    LeftArm LeftForeArm
    LeftForeArm LeftHand
    RightShoulderDummy RightShoulder
    RightShoulder RightArm
    RightArm RightForeArm
    RightForeArm RightHand
    LeftUpLegDummy LeftUpLeg
    LeftUpLeg LeftLeg
    LeftLeg LeftFoot
    LeftFoot LeftToes
  end

:SAMPLES-PER-SECOND 30
:FULLY-SPECIFIED
:DEGREES
116
root  -22.6304 39.5566 0.64813 107.507 -86.12 -115.638
RightUpLeg  -7.26034 -12.6786 4.13358
RightLeg  23.3345 -2.71866 0.922233
RightFoot  -8.35607 0.0994424 -5.96786
RightToes  0.000481922 0.542163 -0.142578
Spine  4.64076 -0.265878 11.3309
Spine1  11.6351 1.23719 0.092018
HEad  -7.85787 -1.30393 -0.876092
LeftShoulder1  10.4447 -14.1508 -51.6282
LeftArm  -3.62344 13.1647 -26.9729
LeftForeArm  45.3655 -7.78123 -7.14359
LeftHand  -0.25398 0.0180481 5.50724
RightShoulder  6.09137 9.88002 39.4054
RightArm  5.82438 2.27336 35.3487
RightForeArm  1.69416 17.8121 6.18241
RightHand  -1.52203 5.03748 -17.1914
LeftUpLeg  -15.1047 3.04639 4.38315
LeftLeg  67.5927 1.93566 5.91872
LeftFoot  1.8484 0.370428 -3.29623
LeftToes  1.06245e-005 4.65869e-005 -8.65513e-006
117
root  -23.9278 39.7646 0.572978 120.63 -86.0342 -128.902
RightUpLeg  -4.05903 -11.4956 2.88476
RightLeg  21.8869 -2.91836 2.04911
RightFoot  -9.64384 0.0188164 -5.66288
RightToes  0.000481922 0.542163 -0.142578
Spine  4.73784 0.143566 11.9316
Spine1  11.5839 1.98436 -1.24161
HEad  -7.64704 -1.43059 -0.8565
LeftShoulder1  10.4663 -14.2031 -51.5833
LeftArm  -4.2571 16.8049 -26.3029
LeftForeArm  46.3591 -3.8177 -6.59902
LeftHand  -0.25398 0.0180481 5.50724
RightShoulder  5.90326 9.72839 38.5471
RightArm  10.0692 7.02835 36.4328
RightForeArm  -1.23097 21.8447 5.21857
RightHand  -1.50087 4.92955 -17.1287
LeftUpLeg  -18.5368 3.05368 3.7276
LeftLeg  63.5181 2.19817 5.4375
LeftFoot  -0.103645 0.228437 -2.32393
LeftToes  1.06245e-005 4.65869e-005 -8.65513e-006
118
root  -25.2052 39.9286 0.500875 132.857 -85.6749 -141.26
RightUpLeg  -0.94096 -10.6271 1.90041
RightLeg  20.3715 -2.68439 2.81926
RightFoot  -10.7577 -0.0449258 -5.45884
RightToes  0.000481922 0.542163 -0.142578
Spine  4.71874 0.578228 12.174
Spine1  11.7343 2.59494 -2.39905
HEad  -7.8274 -1.42231 -0.961163
LeftShoulder1  10.5158 -14.288 -51.5803
LeftArm  -3.41139 21.0987 -25.247
LeftForeArm  47.2457 -3.39893 -6.61499
LeftHand  -0.25398 0.0180481 5.50724
RightShoulder  5.78114 9.60802 38.046
RightArm  10.3252 11.4683 36.7554
RightForeArm  -1.75581 25.6803 5.54331
RightHand  -1.49365 4.95316 -17.0124
LeftUpLeg  -20.8108 3.42375 3.22474
LeftLeg  56.4358 2.34503 4.32713
LeftFoot  -1.54516 0.210979 -2.36203
LeftToes  1.06245e-005 4.65869e-005 -8.65513e-006
119
root  -26.467 39.9937 0.428737 141.919 -85.0178 -150.341
RightUpLeg  1.72891 -10.1889 1.28993
RightLeg  19.4346 -1.98921 3.17856
RightFoot  -12.175 -0.121041 -5.34946
RightToes  0.000481922 0.542163 -0.142578
Spine  4.41373 1.07686 12.146
Spine1  12.2109 3.07128 -2.9688
HEad  -8.25945 -1.352 -1.15296
LeftShoulder1  10.5141 -14.2704 -51.6224
LeftArm  -1.68836 25.4715 -24.1442
LeftForeArm  48.3411 -5.27543 -7.08696
LeftHand  -0.25398 0.0180481 5.50724
RightShoulder  5.68542 9.54564 37.5416
RightArm  9.16627 15.4562 36.7233
RightForeArm  -1.21526 29.2815 6.42693
RightHand  -1.50641 4.96662 -17.1318
LeftUpLeg  -21.8454 4.63336 3.02007
LeftLeg  46.5266 2.08507 2.77019
LeftFoot  -1.27322 0.31366 -3.45955
LeftToes  1.06245e-005 4.65869e-005 -8.65513e-006
120
root  -27.7264 39.9684 0.376088 144.739 -84.1937 -153.027
RightUpLeg  3.94084 -10.0899 1.10178
RightLeg  19.0422 -1.08053 3.3573
RightFoot  -13.7634 -0.201989 -5.15455
RightToes  0.000481922 0.542163 -0.142578
Spine  3.90398 1.52043 12.4465
Spine1  12.6826 3.4425 -3.39671
HEad  -8.60049 -1.30149 -1.31669
LeftShoulder1  10.4207 -14.1621 -51.4798
LeftArm  0.271962 29.4802 -23.4073
LeftForeArm  48.6334 -7.66136 -7.54595
LeftHand  -0.25398 0.0180481 5.50724
RightShoulder  5.55287 9.45342 36.851
RightArm  7.66354 18.5079 36.8139
RightForeArm  -0.00814036 32.5981 7.21044
RightHand  -1.5169 4.82783 -17.469
LeftUpLeg  -21.6535 6.52307 2.96012
LeftLeg  34.4335 1.44236 1.45868
LeftFoot  0.0619695 0.415093 -4.16929
LeftToes  1.06245e-005 4.65869e-005 -8.65513e-006
121
root  -28.9682 39.9442 0.346042 145.984 -83.331 -154.067
RightUpLeg  6.13678 -10.1418 0.991334
RightLeg  18.3587 -0.0034453 3.40775
RightFoot  -14.8699 -0.251609 -4.89308
RightToes  0.000481922 0.542163 -0.142578
Spine  3.48755 1.94883 12.8987
Spine1  12.8531 3.91197 -4.2434
HEad  -8.53798 -1.34169 -1.36467
LeftShoulder1  10.2561 -14.0604 -50.969
LeftArm  2.04705 33.0456 -23.3247
LeftForeArm  47.3405 -9.51456 -7.57507
LeftHand  -0.25398 0.0180481 5.50724
RightShoulder  5.41433 9.31714 36.2437
RightArm  6.06785 20.2941 36.8929
RightForeArm  1.07294 35.5368 7.96153
RightHand  -1.55516 4.77808 -17.9743
LeftUpLeg  -20.3679 8.92579 2.67308
LeftLeg  20.7453 0.779834 0.528732
LeftFoot  1.46702 0.448975 -4.08083
LeftToes  1.06245e-005 4.65869e-005 -8.65513e-006
122
root  -30.2318 39.8957 0.334191 148.052 -82.501 -155.935
RightUpLeg  8.40361 -10.2256 0.693252
RightLeg  17.5977 1.14635 3.25825
RightFoot  -15.8969 -0.28436 -4.45157
RightToes  0.000481922 0.542163 -0.142578
Spine  3.09993 2.35047 13.0604
Spine1  12.9319 4.45514 -5.14076
HEad  -8.02412 -1.36899 -1.31885
LeftShoulder1  10.0355 -13.9409 -50.2227
LeftArm  2.22073 36.0869 -23.8668
LeftForeArm  45.964 -10.5076 -7.26434
LeftHand  -0.25398 0.0180481 5.50724
RightShoulder  5.3361 9.21817 35.9642
RightArm  4.93687 21.0005 36.7084
RightForeArm  1.25453 37.9896 8.68091
RightHand  -1.64702 5.0126 -18.5922
LeftUpLeg  -18.226 8.99179 3.25831
LeftLeg  6.93382 3.56178 -1.26195
LeftFoot  2.48425 0.452345 -3.8602
LeftToes  1.06245e-005 4.65869e-005 -8.65513e-006
123
root  -31.6023 39.7216 0.361677 147.964 -81.8715 -155.628
RightUpLeg  10.5884 -10.4866 0.303441
RightLeg  17.514 2.24847 3.09631
RightFoot  -17.6804 -0.302593 -3.34418
RightToes  0.000481922 0.542163 -0.142578
Spine  2.29568 2.58969 13.1303
Spine1  13.1928 4.70086 -5.4673
HEad  -7.2916 -1.21616 -1.26766
LeftShoulder1  9.77373 -13.7106 -49.5704
LeftArm  0.576593 38.2733 -24.7586
LeftForeArm  45.2937 -10.6437 -6.82129
LeftHand  -0.25398 0.0180481 5.50724
RightShoulder  5.31603 9.17256 35.9567
RightArm  4.32139 20.8961 36.3981
RightForeArm  1.33603 39.8658 9.27293
RightHand  -1.7184 5.22112 -19.0085
LeftUpLeg  -16.3675 4.03806 5.63467
LeftLeg  -3.02504 12.3152 -4.57544
LeftFoot  1.64144 0.365518 -3.27623
LeftToes  1.06245e-005 4.65869e-005 -8.65513e-006
124
root  -33.0612 39.4608 0.435909 145.798 -81.799 -153.13
RightUpLeg  12.5909 -11.1089 -0.305594
RightLeg  17.9935 3.26121 2.98565
RightFoot  -19.7082 -0.249799 -1.58567
RightToes  0.000481922 0.542163 -0.142578
Spine  1.11184 2.57167 13.0682
Spine1  13.5681 4.55674 -5.40813
HEad  -6.60595 -0.913266 -1.24123
LeftShoulder1  9.52389 -13.397 -49.199
LeftArm  -1.90057 39.3599 -25.5775
LeftForeArm  44.7704 -10.0358 -6.36432
LeftHand  -0.25398 0.0180481 5.50724
RightShoulder  5.32283 9.12834 36.1528
RightArm  3.92589 19.8349 36.0836
RightForeArm  1.98662 41.2057 9.6816
RightHand  -1.72971 5.23644 -19.1019
LeftUpLeg  -16.7842 4.35778 5.13816
LeftLeg  -4.67846 15.0865 -5.28787
LeftFoot  -0.94062 0.181469 -1.90504
LeftToes  1.06245e-005 4.65869e-005 -8.65513e-006
125
root  -34.5578 39.2214 0.532175 146.281 -82.121 -153.297
RightUpLeg  14.4232 -11.607 -1.36427
RightLeg  18.7696 4.01364 2.59296
RightFoot  -20.9854 -0.145889 -0.0347236
RightToes  0.000481922 0.542163 -0.142578
Spine  0.089137 2.56045 12.3999
Spine1  13.7794 4.48548 -5.3407
HEad  -6.07094 -0.652051 -1.16311
LeftShoulder1  9.3376 -13.1049 -49.0835
LeftArm  -4.07765 39.4732 -26.0187
LeftForeArm  43.6939 -9.15879 -5.9146
LeftHand  -0.25398 0.0180481 5.50724
RightShoulder  5.39045 9.12166 36.6955
RightArm  3.67137 17.5619 35.4672
RightForeArm  2.55952 42.014 9.9246
RightHand  -1.75854 5.33277 -19.2421
LeftUpLeg  -17.3403 3.84611 4.06418
LeftLeg  -2.38854 17.4528 -4.69369
LeftFoot  0.0465609 -0.0976267 0.881228
LeftToes  1.06245e-005 4.65869e-005 -8.65513e-006
126
root  -36.1414 38.9862 0.622753 153.029 -82.1273 -160.069
RightUpLeg  16.0892 -10.7946 -2.72465
RightLeg  20.4184 4.00325 1.82665
RightFoot  -21.8279 -0.0196344 1.37243
RightToes  0.000481922 0.542163 -0.142578
Spine  -0.672764 2.99029 10.9508
Spine1  13.7283 4.78682 -4.95045
HEad  -5.67859 -0.542341 -0.938685
LeftShoulder1  9.20466 -12.8476 -49.145
LeftArm  -5.62415 38.8704 -26.0765
LeftForeArm  42.2053 -8.75368 -5.48444
LeftHand  -0.25398 0.0180481 5.50724
RightShoulder  5.5825 9.24939 37.7375
RightArm  3.76871 14.2487 34.3844
RightForeArm  2.5565 41.7867 9.84349
RightHand  -1.81557 5.50576 -19.5444
LeftUpLeg  -18.003 3.88558 2.67064
LeftLeg  2.23141 17.738 -3.35989
LeftFoot  5.59845 -0.627552 3.92247
LeftToes  1.06245e-005 4.65869e-005 -8.65513e-006
